<svg xmlns="http://www.w3.org/2000/svg" class='basket' viewBox="0 0 29 26">
  <metadata><?xpacket begin="﻿" id="W5M0MpCehiHzreSzNTczkc9d"?>
<x:xmpmeta xmlns:x="adobe:ns:meta/" x:xmptk="Adobe XMP Core 5.6-c138 79.159824, 2016/09/14-01:09:01        ">
   <rdf:RDF xmlns:rdf="http://www.w3.org/1999/02/22-rdf-syntax-ns#">
      <rdf:Description rdf:about=""/>
   </rdf:RDF>
</x:xmpmeta>
                                                                                                    
                                                                                                    
                                                                                                    
                                                                                                    
                                                                                                    
                                                                                                    
                                                                                                    
                                                                                                    
                                                                                                    
                                                                                                    
                                                                                                    
                                                                                                    
                                                                                                    
                                                                                                    
                                                                                                    
                                                                                                    
                                                                                                    
                                                                                                    
                                                                                                    
                                                                                                    
                           
<?xpacket end="w"?></metadata>
<defs>
    <style>
      .cls-1 {
        fill: #bdbdbd;
        fill-rule: evenodd;
      }
    </style>
  </defs>
  <path class="cls-1" d="M1006.07,32.007a2.1,2.1,0,0,0-2.08,1.673h-0.05l-6.825,7.547h3.415l4.72-5.214a2.118,2.118,0,0,0,.82.185,2.168,2.168,0,0,0,.83-0.185l4.72,5.214h3.42l-6.83-7.547h-0.06a2.08,2.08,0,0,0-2.08-1.673h0ZM993.7,42.9a1.69,1.69,0,0,0-1.709,1.679v0.838a1.669,1.669,0,0,0,1.575,1.65l2.691,9.246c0.855,1.678,1.709,1.678,2.558,1.678h15.362c0.86,0,1.7,0,2.56-1.678l2.7-9.246a1.675,1.675,0,0,0,1.57-1.65V44.581a1.689,1.689,0,0,0-1.71-1.679H993.7Zm4.8,4.191h0.424a2.2,2.2,0,0,1,2.083,1.572l1.2,5.215a1.289,1.289,0,0,1-1.36,1.6h-0.43a2.208,2.208,0,0,1-2.08-1.6l-1.2-5.215a1.273,1.273,0,0,1,1.363-1.572h0Zm8,0a1.69,1.69,0,0,1,1.71,1.679V53.8a1.71,1.71,0,0,1-3.42,0V48.772a1.7,1.7,0,0,1,1.71-1.679h0Zm7.57,0h0.43a1.269,1.269,0,0,1,1.36,1.572l-1.2,5.215a2.205,2.205,0,0,1-2.08,1.6h-0.43a1.289,1.289,0,0,1-1.36-1.6l1.2-5.215a2.2,2.2,0,0,1,2.08-1.572h0Z" transform="translate(-992 -32)"/>
</svg>
