<!-- Generated by IcoMoon.io -->
<svg version="1.1" xmlns="http://www.w3.org/2000/svg" class='pans' viewBox="0 0 16 32">
<title>pans</title>
<path fill="#fff" d="M15.207 2.203s2.167 3.080 0.309 10.704c0 0-1.547 16.411 0.155 18.179 0 0-4.643 1.008-6.191 0.504 0 0-0.465-15.653-0.465-17.067s-0.929-2.928-0.929-2.928-0.542 3.283-0.619 4.645-0.619 15.451-0.619 15.451-4.334 0.96-6.191-0.504c0 0 1.006-9.243 0.773-13.736s-2.012-12.117-1.238-13.733 0.773-1.717 0.773-1.717zM1.098 1.112l0.22-1.112h13.189l0.44 1.779z"></path>
</svg>
