<!-- Generated by IcoMoon.io -->
<svg version="1.1" xmlns="http://www.w3.org/2000/svg" class='t-shirt' viewBox="0 0 33 32">
<title>t-shirt</title>
<path fill="#fff" d="M26.688 30.178l-0.295-14.581s2.433 1.967 4.718 0.727 2.064-1.167 2.064-1.167-1.622-8.311-2.507-9.477-3.686-2.77-5.603-3.501c-1.128-0.41-2.101-0.901-3.004-1.492l0.055 0.034h-0.442s-4.497 4.010-10.027 0.436c0 0-4.276 1.461-4.866 1.606s-1.696-0.294-3.686 3.792-3.096 6.562-3.096 6.562 4.423 3.498 6.783 3.207 0.59 0.145 0.59 0.145l-0.148 13.563s6.193 2.988 11.648 1.603 7.815-1.458 7.815-1.458zM12.109 0.722s3.778 2.744 9.203-0.242l-0.485-0.48s-5.909 1.731-7.992 0z"></path>
</svg>
