<!-- Generated by IcoMoon.io -->
<svg version="1.1" xmlns="http://www.w3.org/2000/svg" width="21" height="32" viewBox="0 0 21 32">
<title>tie</title>
<path fill="#fff" opacity="0.99" d="M5.311 7.466h6.374l5.311 17.067-8.498 7.467-8.498-7.467zM3.187-0h10.623l-2.125 6.4h-6.374zM7.436 9.6l-4.249 13.867 5.312 5.334 5.311-5.333-4.249-13.867h-2.125zM3.187 16.948l1.502 1.508 7.64-7.672-1.502-1.508zM2.124 23.641l1.062 2.134 10.623-10.667-1.062-2.133zM4.844 26.736l1.748 1.741 8.892-8.854-1.748-1.741zM19.121 12.8l2.124 7.466-5.311-3.2-2.125-7.467z"></path>
</svg>
