<!-- Generated by IcoMoon.io -->
<svg version="1.1" xmlns="http://www.w3.org/2000/svg" class='umbrella' viewBox="0 0 34 32">
<title>umbrella</title>
<path fill="#fff" d="M16.88 0.004c-0.837 0-1.549 0.808-1.793 1.94-8.48 0.747-15.091 6.773-15.091 14.060h0.086c0.395-1.082 2.098-1.886 4.136-1.886s3.737 0.805 4.128 1.886h0.18c0.395-1.082 2.095-1.886 4.132-1.886s3.737 0.805 4.128 1.886h0.18c0.395-1.082 2.091-1.886 4.128-1.886s3.744 0.805 4.136 1.886h0.176c0.392-1.082 2.091-1.886 4.128-1.886 2.044 0 3.74 0.805 4.136 1.886h0.086c0-7.287-6.611-13.312-15.091-14.060-0.244-1.132-0.956-1.94-1.786-1.94v0zM15.001 16.384v10.905c0 0.519-0.421 0.94-0.94 0.94s-0.94-0.421-0.94-0.94v0c0-1.035-0.839-1.874-1.874-1.874s-1.874 0.839-1.874 1.874v0c-0.001 0.016-0.001 0.035-0.001 0.053 0 0.117 0.012 0.232 0.035 0.342l-0.002-0.011c0.191 2.427 2.207 4.324 4.666 4.324 2.584 0 4.68-2.095 4.68-4.68 0-0.010-0-0.020-0-0.030v0.002-10.905c-0.905 0.334-1.563 0.877-1.786 1.498h-0.18c-0.223-0.622-0.88-1.164-1.786-1.498v0z"></path>
</svg>
